<?xml version="1.0" encoding="UTF-8"?><svg id="Layer_1" xmlns="http://www.w3.org/2000/svg" viewBox="0 0 172.53 60.51"><defs><style>.cls-1{fill:#002e21;}</style></defs><path class="cls-1" d="M64.62,14.23c4.61,0,8.41,1.52,11.4,4.55,2.99,3.04,4.49,6.79,4.49,11.27v1.2c0,.84-.42,1.26-1.26,1.26h-24.34c.22,2.75,1.27,5,3.16,6.75,1.88,1.75,4.18,2.63,6.88,2.63,3.37,0,6.23-1.33,8.58-3.99,.53-.58,1.09-.66,1.66-.27l2.93,1.93c.67,.44,.75,1,.27,1.66-3.06,4.12-7.58,6.18-13.56,6.18-4.79,0-8.73-1.56-11.84-4.69-3.1-3.13-4.65-7.06-4.65-11.8s1.55-8.6,4.65-11.84c3.1-3.24,6.98-4.85,11.64-4.85Zm9.57,13.96c-.31-2.66-1.35-4.76-3.12-6.32-1.77-1.55-3.9-2.33-6.38-2.33s-4.61,.8-6.38,2.39c-1.77,1.6-2.86,3.68-3.26,6.25h19.15Z"/><path class="cls-1" d="M90.95,46.54c-2.53,0-4.47-.65-5.82-1.96-1.35-1.31-2.03-3.22-2.03-5.75V1.26c0-.31,.12-.6,.37-.86,.24-.27,.54-.4,.9-.4h3.92c.8,0,1.2,.42,1.2,1.26V37.83c0,2.22,1.11,3.32,3.32,3.32h1.66c.84,0,1.26,.4,1.26,1.2v2.79c0,.93-.51,1.4-1.53,1.4h-3.26Z"/><path class="cls-1" d="M103.94,8.11c-.86,.89-1.92,1.33-3.16,1.33s-2.29-.44-3.16-1.33c-.86-.89-1.3-1.93-1.3-3.13s.43-2.3,1.3-3.19c.86-.89,1.92-1.33,3.16-1.33s2.29,.44,3.16,1.33c.86,.89,1.3,1.95,1.3,3.19s-.43,2.24-1.3,3.13Zm-1.16,38.43h-3.92c-.36,0-.65-.12-.9-.37-.24-.24-.37-.54-.37-.9V16.42c0-.84,.42-1.26,1.26-1.26h3.92c.35,0,.64,.12,.86,.37,.22,.24,.33,.54,.33,.9v28.86c0,.36-.12,.65-.37,.9-.24,.24-.52,.37-.83,.37Z"/><path class="cls-1" d="M131.7,45.41v-15.82c0-2.97-.78-5.29-2.33-6.95-1.55-1.66-3.72-2.49-6.52-2.49s-5.04,.88-6.75,2.63c-1.71,1.75-2.56,4.02-2.56,6.82v15.82c0,.31-.12,.58-.37,.8-.24,.22-.52,.33-.83,.33h-3.99c-.36,0-.64-.11-.86-.33-.22-.22-.33-.51-.33-.86V16.42c0-.35,.11-.65,.33-.9,.22-.24,.51-.37,.86-.37h3.99c.31,0,.59,.12,.83,.37,.24,.24,.37,.52,.37,.83v3.46c.93-1.64,2.37-2.97,4.32-3.99,1.95-1.02,4.19-1.53,6.72-1.53,4.12,0,7.4,1.26,9.84,3.79,2.44,2.53,3.66,5.81,3.66,9.84v17.49c0,.31-.12,.58-.37,.8-.24,.22-.54,.33-.9,.33h-3.86c-.36,0-.65-.11-.9-.33-.24-.22-.37-.49-.37-.8Z"/><path class="cls-1" d="M139.62,30.79c0-4.79,1.54-8.73,4.62-11.84,3.08-3.1,6.79-4.65,11.14-4.65,2.44,0,4.62,.53,6.55,1.6,1.93,1.06,3.34,2.46,4.22,4.19v-3.66c0-.35,.12-.65,.37-.9,.24-.24,.54-.37,.9-.37h3.92c.35,0,.64,.12,.86,.37,.22,.24,.33,.54,.33,.9V59.31c0,.35-.12,.64-.37,.86-.24,.22-.52,.33-.83,.33h-3.99c-.31,0-.59-.11-.83-.33-.24-.22-.37-.51-.37-.86v-17.75c-1.02,1.77-2.47,3.19-4.36,4.26-1.88,1.06-4.02,1.6-6.42,1.6-4.34,0-8.06-1.56-11.14-4.69-3.08-3.13-4.62-7.1-4.62-11.94Zm6.52,.07c0,3.01,.95,5.55,2.86,7.61,1.91,2.06,4.3,3.09,7.18,3.09s5.27-1.03,7.18-3.09c1.91-2.06,2.86-4.6,2.86-7.61s-.95-5.49-2.86-7.55c-1.91-2.06-4.3-3.09-7.18-3.09s-5.28,1.03-7.18,3.09c-1.91,2.06-2.86,4.58-2.86,7.55Z"/><path class="cls-1" d="M32.47,9.03v2.85c0,.6-.41,1.09-.91,1.09h-14.22c-.5,0-.91-.49-.91-1.09v-2.85c0-.6,.41-1.09,.91-1.09h14.22c.5,0,.91,.49,.91,1.09Z"/><path class="cls-1" d="M21.9,49.51v2.85c0,.6-.41,1.09-.91,1.09H6.77c-.5,0-.91-.49-.91-1.09v-2.85c0-.6,.41-1.09,.91-1.09h14.22c.5,0,.91,.49,.91,1.09Z"/><path class="cls-1" d="M43.31,49.51v2.85c0,.6-.41,1.09-.91,1.09h-14.22c-.5,0-.91-.49-.91-1.09v-2.85c0-.6,.41-1.09,.91-1.09h14.22c.5,0,.91,.49,.91,1.09Z"/><path class="cls-1" d="M53.52,.46c-.22-.29-.53-.43-.93-.43h-4.3c-.71,0-1.2,.38-1.46,1.13l-11.53,38.01-6.78-22.81c-.27-.8-.75-1.2-1.46-1.2h-4.99c-.75,0-1.22,.4-1.4,1.2l-6.78,22.81L7.03,16.29c-.22-.75-.71-1.13-1.46-1.13H1.18c-.44,0-.78,.14-1,.43-.22,.29-.24,.65-.07,1.1l9.44,28.66c.31,.8,.84,1.2,1.6,1.2h5.25c.84,0,1.37-.4,1.6-1.2l6.45-21.88,6.38,21.88c.22,.8,.75,1.2,1.6,1.2h5.19c.8,0,1.35-.4,1.66-1.2l.21-.63L53.59,1.56c.18-.44,.15-.81-.07-1.1Z"/></svg>